<?xml version="1.0" standalone="no"?>
<!DOCTYPE svg PUBLIC "-//W3C//DTD SVG 20010904//EN"
 "http://www.w3.org/TR/2001/REC-SVG-20010904/DTD/svg10.dtd">
<svg version="1.0" xmlns="http://www.w3.org/2000/svg"
 width="512.000000pt" height="512.000000pt" viewBox="0 0 512.000000 512.000000"
 preserveAspectRatio="xMidYMid meet">

<g transform="translate(0.000000,512.000000) scale(0.100000,-0.100000)"
fill="#000000" stroke="none">
<path d="M880 5024 c-154 -41 -260 -188 -260 -360 l0 -51 -77 -10 c-139 -18
-237 -86 -291 -201 l-27 -57 -3 -657 c-2 -648 -2 -658 18 -678 30 -30 83 -27
109 6 21 26 21 34 21 656 0 682 -1 665 56 721 65 65 36 62 629 62 l540 0 50
-23 c63 -29 105 -69 166 -159 56 -83 112 -131 195 -170 l59 -28 1125 -5 c1054
-5 1127 -6 1151 -23 14 -9 31 -29 37 -43 9 -18 12 -193 12 -624 l0 -599 -302
-3 c-298 -3 -304 -3 -341 -26 -20 -13 -48 -43 -62 -66 -21 -36 -25 -55 -25
-124 0 -71 -3 -84 -24 -109 l-24 -28 -1052 0 -1052 0 -24 28 c-21 25 -24 38
-24 109 0 69 -4 88 -25 124 -14 23 -42 53 -62 66 l-38 23 -573 3 c-385 2 -586
-1 -612 -8 -51 -14 -108 -64 -131 -115 -18 -38 -19 -96 -19 -1097 0 -740 3
-1073 11 -1110 37 -177 190 -325 368 -358 74 -14 4288 -14 4362 0 178 33 331
181 368 358 8 37 11 370 11 1110 0 1001 -1 1059 -19 1097 -23 51 -79 101 -128
114 -21 6 -127 11 -235 11 l-198 0 0 608 c0 387 -4 620 -10 644 -18 62 -69
120 -135 153 l-60 30 -1120 5 c-658 3 -1128 9 -1140 14 -58 27 -102 68 -148
135 -66 99 -124 153 -202 192 -84 41 -171 48 -617 48 l-338 1 0 48 c0 26 5 65
11 87 15 52 82 119 134 134 55 15 1014 15 1085 0 74 -16 137 -63 193 -144 70
-102 123 -152 206 -193 l75 -37 1121 -5 c1064 -5 1122 -6 1149 -23 57 -38 56
-26 56 -767 0 -667 0 -680 20 -700 27 -27 81 -26 106 1 18 20 19 47 19 723 0
799 4 757 -84 839 -87 82 -13 77 -1241 77 -1195 0 -1135 -3 -1213 61 -21 17
-60 64 -87 104 -84 124 -179 191 -304 214 -39 7 -241 11 -570 10 -415 0 -521
-3 -566 -15z m418 -2406 c7 -7 12 -39 12 -73 0 -125 57 -225 148 -257 30 -10
251 -13 1107 -13 1035 0 1071 1 1109 19 90 45 136 129 136 251 0 34 5 66 12
73 9 9 147 12 560 12 536 0 548 0 568 -20 20 -20 20 -29 18 -1083 l-3 -1062
-28 -57 c-32 -65 -89 -121 -156 -152 l-46 -21 -2175 0 -2175 0 -46 21 c-67 31
-124 87 -156 152 l-28 57 -3 1062 c-2 1054 -2 1063 18 1083 20 20 32 20 568
20 413 0 551 -3 560 -12z"/>
<path d="M1843 1761 c-78 -19 -145 -77 -189 -161 -23 -45 -24 -160 -2 -211 22
-50 83 -116 132 -142 l41 -22 735 0 735 0 41 22 c49 26 110 92 132 142 9 21
16 65 16 106 0 110 -51 191 -158 248 l-41 22 -705 2 c-388 1 -719 -2 -737 -6z
m1427 -159 c74 -40 88 -130 30 -195 l-28 -32 -712 0 -712 0 -28 32 c-58 65
-44 155 30 195 33 17 73 18 710 18 637 0 677 -1 710 -18z"/>
<path d="M673 3858 c-46 -22 -45 -114 2 -132 9 -3 246 -6 526 -6 l510 0 24 25
c14 13 25 36 25 50 0 14 -11 37 -25 50 l-24 25 -508 -1 c-336 0 -515 -4 -530
-11z"/>
<path d="M673 3448 c-46 -22 -45 -114 2 -132 9 -3 246 -6 526 -6 l510 0 24 25
c14 13 25 36 25 50 0 14 -11 37 -25 50 l-24 25 -508 -1 c-336 0 -515 -4 -530
-11z"/>
</g>
</svg>
