<?xml version="1.0" standalone="no"?>
<!DOCTYPE svg PUBLIC "-//W3C//DTD SVG 20010904//EN"
 "http://www.w3.org/TR/2001/REC-SVG-20010904/DTD/svg10.dtd">
<svg version="1.0" xmlns="http://www.w3.org/2000/svg"
 width="200.000000pt" height="200.000000pt" viewBox="0 0 200.000000 200.000000"
 preserveAspectRatio="xMidYMid meet">

<g transform="translate(0.000000,200.000000) scale(0.100000,-0.100000)"
fill="#000000" stroke="none">
<path d="M228 1914 c-60 -32 -58 6 -58 -924 0 -934 -3 -893 60 -925 42 -22
1482 -23 1535 -1 68 29 65 -10 65 853 l0 778 -118 118 -117 117 -670 0 c-573
-1 -674 -3 -697 -16z m144 -285 l3 -241 37 -34 38 -34 460 0 460 0 38 34 37
34 3 241 3 241 57 0 57 0 102 -102 103 -103 0 -759 c0 -693 -1 -761 -17 -778
-12 -14 -31 -18 -84 -18 l-68 0 -3 439 c-3 427 -4 440 -24 468 -47 64 -41 63
-559 62 -337 0 -480 -4 -505 -12 -19 -7 -44 -27 -57 -46 l-23 -34 0 -438 0
-439 -82 0 c-132 0 -118 -102 -118 878 0 962 -8 882 86 882 l53 0 3 -241z
m638 52 c0 -149 3 -191 14 -200 9 -8 60 -11 157 -9 l144 3 3 198 2 197 30 0
30 0 0 -223 c0 -185 -3 -226 -16 -245 l-15 -22 -449 0 -449 0 -15 22 c-13 19
-16 60 -16 245 l0 223 290 0 290 0 0 -189z m260 19 l0 -170 -100 0 -100 0 0
170 0 170 100 0 100 0 0 -170z m247 -703 c17 -16 18 -51 21 -452 l3 -435 -526
0 -525 0 0 434 0 435 27 21 c26 20 32 21 504 18 444 -3 480 -4 496 -21z"/>
<path d="M616 825 c-8 -9 -13 -22 -9 -30 4 -13 60 -15 406 -13 384 3 402 4
405 22 2 10 -2 22 -10 27 -7 5 -185 9 -395 9 -329 0 -384 -2 -397 -15z"/>
<path d="M607 575 c-4 -8 1 -21 9 -30 13 -13 68 -15 397 -15 210 0 388 4 395
9 8 5 12 17 10 27 -3 18 -21 19 -405 22 -346 2 -402 0 -406 -13z"/>
<path d="M610 335 c-10 -12 -10 -18 0 -30 11 -13 65 -15 409 -13 l396 3 0 25
0 25 -396 3 c-344 2 -398 0 -409 -13z"/>
</g>
</svg>
