<svg width="200" height="200" xmlns="http://www.w3.org/2000/svg" version="1.0" preserveAspectRatio="xMidYMid meet">
 <g>
  <title>Layer 1</title>
  <g transform="translate(0 200) scale(0.1 -0.1)" fill="#000000" id="svg_1">
   <path d="m228,1914c-60,-32 -58,6 -58,-924c0,-934 -3,-893 60,-925c42,-22 1482,-23 1535,-1c68,29 65,-10 65,853l0,778l-118,118l-117,117l-670,0c-573,-1 -674,-3 -697,-16zm144,-285l3,-241l37,-34l38,-34l460,0l460,0l38,34l37,34l3,241l3,241l57,0l57,0l102,-102l103,-103l0,-759c0,-693 -1,-761 -17,-778c-12,-14 -31,-18 -84,-18l-68,0l-3,439c-3,427 -4,440 -24,468c-47,64 -41,63 -559,62c-337,0 -480,-4 -505,-12c-19,-7 -44,-27 -57,-46l-23,-34l0,-438l0,-439l-82,0c-132,0 -118,-102 -118,878c0,962 -8,882 86,882l53,0l3,-241zm638,52c0,-149 3,-191 14,-200c9,-8 60,-11 157,-9l144,3l3,198l2,197l30,0l30,0l0,-223c0,-185 -3,-226 -16,-245l-15,-22l-449,0l-449,0l-15,22c-13,19 -16,60 -16,245l0,223l290,0l290,0l0,-189zm260,19l0,-170l-100,0l-100,0l0,170l0,170l100,0l100,0l0,-170zm247,-703c17,-16 18,-51 21,-452l3,-435l-526,0l-525,0l0,434l0,435l27,21c26,20 32,21 504,18c444,-3 480,-4 496,-21z" id="svg_2"/>
   <path d="m616,825c-8,-9 -13,-22 -9,-30c4,-13 60,-15 406,-13c384,3 402,4 405,22c2,10 -2,22 -10,27c-7,5 -185,9 -395,9c-329,0 -384,-2 -397,-15z" id="svg_3"/>
   <path d="m607,575c-4,-8 1,-21 9,-30c13,-13 68,-15 397,-15c210,0 388,4 395,9c8,5 12,17 10,27c-3,18 -21,19 -405,22c-346,2 -402,0 -406,-13z" id="svg_4"/>
   <path d="m610,335c-10,-12 -10,-18 0,-30c11,-13 65,-15 409,-13l396,3l0,25l0,25l-396,3c-344,2 -398,0 -409,-13z" id="svg_5"/>
  </g>
  <ellipse stroke="#000" opacity="0.99" filter="url(#svg_6_blur)" stroke-width="0" ry="28.54545" rx="28.54545" id="svg_6" cy="30.68363" cx="169.41819" fill="#C97A86"/>
 </g>
 <defs>
  <filter id="svg_6_blur">
   <feGaussianBlur stdDeviation="0.1" in="SourceGraphic"/>
  </filter>
 </defs>
</svg>